<?xml version="1.0" standalone="no"?>
<!DOCTYPE svg PUBLIC "-//W3C//DTD SVG 20010904//EN"
 "http://www.w3.org/TR/2001/REC-SVG-20010904/DTD/svg10.dtd">
<svg version="1.0" xmlns="http://www.w3.org/2000/svg"
 width="1024.000000pt" height="1024.000000pt" viewBox="0 0 1024.000000 1024.000000"
 preserveAspectRatio="xMidYMid meet">

<g transform="translate(0.000000,1024.000000) scale(0.100000,-0.100000)"
fill="#000000" stroke="none">
<path d="M3540 8041 c-269 -86 -401 -393 -279 -649 45 -94 135 -184 228 -229
42 -20 77 -38 79 -39 2 -1 -18 -34 -44 -74 -97 -150 -154 -315 -175 -509 l-12
-106 -62 -70 c-209 -237 -315 -478 -346 -789 -37 -370 104 -773 380 -1087 l52
-58 10 -191 c11 -223 46 -448 85 -544 56 -140 159 -240 279 -271 75 -19 107
-18 170 3 48 17 51 17 78 -2 35 -25 87 -24 133 3 33 20 37 20 65 5 67 -34 183
-27 270 17 56 28 128 104 155 164 27 58 44 142 44 219 0 42 2 47 18 41 9 -4
52 -20 95 -36 212 -79 541 -78 778 1 50 16 92 30 95 30 2 0 4 -24 4 -52 0 -69
24 -166 54 -226 30 -59 102 -127 164 -155 60 -27 191 -30 237 -6 28 15 32 15
60 -2 38 -24 101 -24 139 -1 28 17 32 17 85 -1 179 -61 393 79 461 301 40 128
79 449 80 653 0 42 6 52 77 134 233 272 348 557 360 895 13 365 -95 669 -336
947 l-71 82 -15 114 c-26 198 -86 364 -184 512 l-40 60 82 39 c244 116 345
396 229 634 -34 70 -127 171 -189 204 -108 59 -258 75 -374 38 -165 -51 -292
-205 -306 -369 l-5 -66 -107 53 c-195 97 -460 168 -716 193 -236 23 -518 -5
-770 -77 -177 -51 -382 -135 -401 -165 -4 -7 -15 26 -24 72 -20 96 -41 144
-98 215 -109 138 -321 200 -492 145z m274 -215 c85 -49 126 -130 126 -246 0
-68 0 -68 -42 -104 l-43 -35 -6 58 c-10 105 -64 161 -153 161 -54 0 -99 -33
-116 -85 -9 -29 -8 -41 8 -77 26 -58 50 -78 129 -104 l67 -23 -38 -35 c-45
-44 -69 -45 -144 -8 -110 53 -173 139 -180 249 -7 102 26 173 108 234 52 39
88 49 166 45 56 -2 82 -9 118 -30z m2868 24 c54 -15 132 -81 156 -132 45 -92
36 -209 -22 -287 -32 -43 -116 -103 -134 -96 -7 2 -11 1 -8 -4 6 -8 -22 -22
-73 -36 -20 -6 -23 -4 -18 9 4 11 3 15 -4 10 -10 -6 -69 42 -69 56 0 3 19 11
43 17 23 7 63 28 89 47 77 59 87 136 26 196 -54 55 -154 35 -210 -41 -12 -16
-22 -50 -25 -86 l-6 -61 -34 20 c-48 29 -56 50 -51 138 7 126 63 209 164 245
47 17 125 19 176 5z m-1252 -220 c261 -39 573 -157 777 -294 210 -140 383
-350 464 -560 44 -113 59 -194 59 -317 l0 -107 71 -68 c168 -163 270 -345 318
-567 25 -114 28 -287 6 -287 -23 0 -28 -21 -9 -35 18 -14 18 -14 0 -15 -10 0
-26 -9 -36 -20 -14 -16 -22 -18 -48 -10 -18 5 -34 5 -37 0 -3 -5 7 -10 22 -12
48 -5 35 -33 -18 -36 -44 -3 -45 -4 -41 -32 2 -17 10 -30 18 -30 7 0 16 -5 20
-11 4 -7 -2 -9 -17 -7 -15 2 -26 12 -30 28 -6 21 -7 19 -8 -13 -1 -36 0 -37
27 -32 23 5 22 4 -8 -10 -19 -9 -46 -13 -60 -10 -19 4 -22 3 -10 -5 13 -9 13
-12 -3 -21 -10 -6 -23 -23 -29 -37 -11 -26 -12 -26 -15 -4 -3 12 -10 22 -16
22 -16 -1 -54 -30 -39 -30 21 0 14 -58 -7 -65 -12 -4 -18 -12 -14 -21 6 -17
-13 -19 -23 -2 -4 6 1 17 11 24 10 8 16 17 12 20 -5 5 -44 -19 -87 -53 -2 -2
2 -8 10 -13 11 -7 11 -11 1 -24 -19 -23 -30 -20 -23 7 5 21 5 21 -11 5 -9 -9
-15 -25 -12 -35 7 -23 -10 13 -20 42 -5 16 -8 17 -15 5 -5 -8 -5 -21 1 -31 11
-21 -2 -32 -26 -23 -10 4 -15 14 -12 25 3 11 2 21 -3 24 -10 6 -22 -24 -14
-36 3 -5 -5 -9 -16 -9 -16 0 -20 -5 -16 -15 6 -17 1 -18 -29 -5 -14 5 -26 2
-39 -9 -18 -15 -19 -15 -14 7 4 12 3 22 -2 22 -12 0 -21 -45 -10 -48 12 -4 3
-22 -11 -22 -6 0 -7 5 -4 10 9 14 -8 12 -30 -4 -10 -7 -28 -11 -39 -8 -20 6
-19 6 4 12 36 9 34 44 -3 48 -16 2 -31 10 -34 19 -5 12 -9 11 -20 -8 -17 -29
-12 -13 21 66 29 68 33 133 11 175 -19 36 -44 50 -87 49 -47 -1 -64 -9 -91
-46 -13 -18 -27 -30 -31 -26 -4 4 -4 1 -1 -8 3 -8 -2 -33 -11 -55 -9 -21 -20
-50 -25 -63 -8 -20 -11 -22 -27 -10 -15 13 -16 12 -3 -3 11 -15 9 -23 -19 -58
-35 -44 -43 -49 -33 -22 6 15 4 15 -16 -2 -27 -25 -57 -28 -57 -6 0 9 8 16 17
16 11 0 15 -6 11 -16 -5 -13 -3 -13 11 -2 22 19 10 45 -17 37 -11 -4 -26 -7
-33 -7 -7 -1 -10 -5 -7 -10 3 -5 -6 -6 -19 -3 -16 4 -35 1 -50 -10 -21 -14
-27 -14 -34 -2 -11 19 -74 31 -67 14 4 -11 -8 -20 -59 -45 -4 -2 -6 2 -5 9 2
6 -3 14 -9 16 -7 3 -13 -2 -13 -11 0 -9 -4 -16 -10 -16 -5 0 -7 7 -4 15 4 10
0 15 -16 15 -16 0 -20 -4 -15 -19 5 -16 2 -18 -15 -14 -16 4 -18 8 -8 20 10
12 7 13 -15 8 -17 -5 -27 -3 -27 4 0 6 -4 11 -10 11 -5 0 -10 -8 -10 -17 0
-15 -4 -13 -20 7 l-20 25 0 -22 c0 -27 -26 -31 -33 -5 -3 9 -5 2 -6 -15 0 -18
-5 -33 -11 -33 -5 0 -10 5 -10 11 0 17 -33 39 -45 30 -5 -5 -22 -11 -37 -15
-21 -5 -28 -3 -28 9 0 8 -5 15 -11 15 -6 0 -9 -7 -6 -15 7 -18 -9 -30 -16 -13
-4 9 -8 10 -14 2 -12 -16 -53 -28 -53 -15 0 6 6 11 14 11 14 0 42 27 35 34 -2
3 -22 -4 -44 -14 -22 -11 -34 -19 -27 -20 23 0 12 -20 -11 -20 -28 0 -47 17
-40 36 3 8 0 14 -6 14 -6 0 -11 -6 -11 -14 0 -16 -43 -30 -48 -16 -5 13 -32
13 -32 1 0 -5 6 -12 13 -14 9 -4 9 -6 0 -6 -6 -1 -14 3 -18 9 -3 5 -12 7 -20
3 -9 -3 -15 1 -15 11 0 9 -5 16 -11 16 -5 0 -8 -4 -4 -9 3 -5 1 -12 -5 -16 -5
-3 -10 1 -10 9 0 8 -4 17 -9 20 -5 3 -8 -2 -7 -11 2 -24 -21 -27 -29 -4 -3 12
-14 21 -23 21 -23 0 -48 -17 -39 -27 5 -4 12 -2 16 5 6 10 10 10 20 -2 19 -23
-18 -25 -58 -3 -18 10 -35 16 -38 13 -2 -2 -18 0 -35 5 -25 7 -31 5 -35 -10
-3 -11 -11 -18 -19 -17 -8 1 -13 6 -12 12 2 5 6 8 11 6 4 -1 7 4 7 10 0 7 -11
14 -25 14 -19 2 -27 -4 -31 -22 -3 -13 -10 -24 -16 -24 -5 0 -6 5 -3 10 3 6 1
10 -5 10 -8 0 -7 6 1 21 8 16 8 20 -1 14 -22 -14 -92 -7 -111 11 -10 9 -19 13
-19 8 0 -5 -14 -15 -32 -23 -26 -12 -33 -12 -36 -2 -3 10 -6 10 -12 1 -5 -8
-11 -7 -23 4 -20 21 -22 20 -47 -6 -16 -17 -19 -18 -15 -6 5 12 1 20 -9 24 -9
3 -16 14 -17 23 0 10 -4 7 -10 -8 -7 -18 -13 -21 -21 -13 -8 8 -6 15 6 27 18
19 20 31 6 40 -6 3 -7 -1 -4 -9 8 -21 -5 -20 -23 2 -13 15 -13 15 -4 -5 6 -12
8 -28 5 -36 -5 -15 10 -30 34 -33 6 -1 9 3 6 8 -4 7 -2 8 4 4 9 -5 9 -12 0
-26 -11 -17 -13 -16 -40 13 -15 18 -26 38 -23 45 3 7 1 11 -4 7 -13 -7 -43 46
-75 130 -30 80 -59 105 -124 105 -29 0 -46 -7 -66 -27 -33 -33 -41 -62 -31
-121 4 -26 7 -55 7 -64 -1 -10 3 -18 7 -18 9 0 31 -45 31 -65 0 -9 -15 -17
-40 -21 -31 -5 -40 -11 -41 -28 -1 -12 -5 -7 -9 14 -6 29 -8 31 -10 10 l-2
-25 -8 25 -8 25 -7 -31 c-7 -30 -35 -44 -35 -16 0 13 -38 51 -52 52 -4 0 -10
-10 -13 -21 -5 -15 -10 -18 -15 -10 -4 7 -13 11 -20 9 -7 -2 -15 3 -18 11 -3
10 1 13 17 8 11 -3 21 -2 21 3 0 14 -42 19 -60 8 -14 -9 -24 -8 -43 5 -16 10
-28 13 -32 7 -10 -16 -25 -12 -19 5 7 19 -45 33 -56 16 -5 -10 -9 -9 -13 3 -8
20 8 29 39 22 14 -4 24 -2 24 4 0 5 -13 10 -29 10 -24 0 -28 3 -24 20 3 11 0
20 -6 20 -6 0 -11 -6 -11 -12 0 -7 -11 -14 -24 -14 -17 -1 -23 2 -19 12 3 8
11 14 19 14 8 0 14 6 14 13 0 25 -13 27 -24 5 -12 -24 -46 -37 -46 -19 0 6 7
11 16 11 8 0 12 5 9 10 -4 6 -12 10 -18 9 -34 -4 -38 1 -23 29 12 23 12 29 0
40 -12 11 -14 7 -14 -20 -1 -32 -1 -32 -13 -10 -7 12 -16 19 -20 16 -4 -4 -7
5 -7 21 0 18 -10 37 -27 52 -26 23 -26 25 -6 20 16 -3 20 -1 16 10 -5 12 -18
14 -54 11 -27 -3 -46 -1 -43 4 3 4 0 8 -6 8 -6 0 -3 11 6 25 22 34 8 47 -16
15 -16 -21 -20 -22 -20 -7 0 10 6 20 14 23 8 3 17 12 20 20 4 10 2 12 -6 8 -8
-5 -9 2 -5 24 4 19 2 32 -3 32 -9 0 -15 -38 -11 -62 0 -5 -6 -8 -14 -8 -8 0
-15 4 -15 10 0 5 -7 7 -15 4 -10 -4 -15 0 -15 11 0 9 5 13 11 9 7 -4 10 -1 7
7 -3 8 -11 14 -19 14 -8 0 -17 9 -21 20 -5 13 -6 9 -3 -12 2 -18 -1 -35 -7
-39 -8 -5 -9 32 -5 137 6 146 26 256 68 369 45 123 153 285 262 395 l80 79 2
116 c4 147 28 241 99 386 86 173 216 326 391 460 191 146 563 287 857 324 90
11 427 5 528 -10z m-2220 -2301 c0 -6 -4 -7 -10 -4 -5 3 -10 11 -10 16 0 6 5
7 10 4 6 -3 10 -11 10 -16z m3784 -45 c8 -3 12 -12 9 -20 -8 -21 -29 -17 -29
6 0 11 1 20 2 20 1 0 9 -3 18 -6z m-3684 -55 c-12 -22 -31 -21 -38 1 -3 7 0
10 6 6 6 -3 13 -2 17 4 12 20 26 10 15 -11z m54 -44 c-4 -10 -11 -10 -29 -1
-13 6 -19 14 -13 17 16 10 47 -2 42 -16z m3 -57 c-3 -7 -5 -2 -5 12 0 14 2 19
5 13 2 -7 2 -19 0 -25z m3521 -8 c-7 -10 -14 -18 -15 -16 -6 6 9 36 18 36 5 0
4 -9 -3 -20z m-3557 -33 c-10 -9 -11 -8 -5 6 3 10 9 15 12 12 3 -3 0 -11 -7
-18z m3499 13 c0 -5 -4 -10 -10 -10 -5 0 -10 5 -10 10 0 6 5 10 10 10 6 0 10
-4 10 -10z m-5 -60 c-3 -6 -14 -9 -23 -9 -15 1 -15 2 -1 6 11 3 15 11 12 26
-4 20 -3 20 7 4 6 -9 8 -22 5 -27z m-3355 6 c0 -2 -7 -6 -15 -10 -8 -3 -15 -1
-15 4 0 6 7 10 15 10 8 0 15 -2 15 -4z m14 -49 c7 -6 6 -7 -4 -4 -8 2 -16 12
-17 23 -2 13 -1 15 4 4 3 -8 11 -19 17 -23z m26 17 c0 -8 -5 -12 -10 -9 -6 4
-8 11 -5 16 9 14 15 11 15 -7z m3260 -28 c0 -3 -4 -8 -10 -11 -5 -3 -10 -1
-10 4 0 6 5 11 10 11 6 0 10 -2 10 -4z m-3180 -21 c0 -8 -4 -15 -10 -15 -5 0
-10 7 -10 15 0 8 5 15 10 15 6 0 10 -7 10 -15z m54 -20 c-6 -16 -24 -21 -24
-7 0 11 11 22 21 22 5 0 6 -7 3 -15z m743 -7 c-3 -8 -6 -5 -6 6 -1 11 2 17 5
13 3 -3 4 -12 1 -19z m173 -10 c0 -5 -9 -8 -20 -8 -11 0 -20 2 -20 4 0 2 -3
11 -6 20 -5 13 -2 13 20 3 14 -7 26 -15 26 -19z m-67 2 c-8 -30 -21 -34 -15
-5 2 14 8 25 12 25 5 0 6 -9 3 -20z m1833 -22 c-6 -4 -14 0 -18 10 -12 30 -8
36 11 16 12 -13 15 -21 7 -26z m-2313 2 c-3 -11 -14 -20 -24 -20 -26 0 -24 13
4 26 12 7 23 12 24 13 0 0 -1 -8 -4 -19z m607 16 c0 -9 -30 -14 -35 -6 -4 6 3
10 14 10 12 0 21 -2 21 -4z m1975 -6 c-3 -5 -12 -10 -20 -10 -8 0 -17 5 -20
10 -4 6 5 10 20 10 15 0 24 -4 20 -10z m-2785 -25 c-16 -19 -30 -19 -30 -1 0
8 8 16 18 18 24 6 27 1 12 -17z m1585 15 c3 -5 -1 -10 -10 -10 -9 0 -13 5 -10
10 3 6 8 10 10 10 2 0 7 -4 10 -10z m405 6 c0 -3 -4 -8 -10 -11 -5 -3 -10 -1
-10 4 0 6 5 11 10 11 6 0 10 -2 10 -4z m690 -17 c0 -6 -4 -7 -10 -4 -5 3 -10
11 -10 16 0 6 5 7 10 4 6 -3 10 -11 10 -16z m-1689 -12 c-10 -9 -11 -8 -5 6 3
10 9 15 12 12 3 -3 0 -11 -7 -18z m1729 2 c0 -6 -4 -7 -10 -4 -5 3 -10 11 -10
16 0 6 5 7 10 4 6 -3 10 -11 10 -16z m-2580 1 c0 -5 -4 -10 -10 -10 -5 0 -10
5 -10 10 0 6 5 10 10 10 6 0 10 -4 10 -10z m1337 -6 c-3 -3 -12 -4 -19 -1 -8
3 -5 6 6 6 11 1 17 -2 13 -5z m-1467 -14 c-8 -5 -19 -10 -25 -10 -5 0 -3 5 5
10 8 5 20 10 25 10 6 0 3 -5 -5 -10z m57 -6 c-3 -3 -12 -4 -19 -1 -8 3 -5 6 6
6 11 1 17 -2 13 -5z m40 0 c-3 -3 -12 -4 -19 -1 -8 3 -5 6 6 6 11 1 17 -2 13
-5z m633 -383 c247 -129 573 -170 875 -110 101 21 251 72 338 116 27 13 52 22
55 19 11 -11 -16 -124 -44 -182 -42 -89 -150 -192 -255 -243 -127 -61 -198
-75 -374 -74 -174 0 -260 18 -378 80 -88 46 -203 156 -241 232 -23 43 -55 158
-56 194 0 10 -3 11 80 -32z"/>
<path d="M4090 6891 c-41 -13 -84 -38 -107 -63 -30 -32 -63 -107 -63 -144 0
-81 87 -112 152 -56 18 16 44 32 57 35 29 7 79 -12 105 -42 13 -14 31 -21 56
-21 51 0 80 32 80 88 0 136 -148 243 -280 203z"/>
<path d="M6076 6890 c-84 -26 -156 -119 -156 -202 0 -87 81 -117 155 -58 26
21 49 30 75 30 27 0 43 -7 65 -30 22 -23 38 -30 66 -30 79 0 108 67 69 159
-47 108 -163 164 -274 131z"/>
<path d="M4263 6184 c-117 -42 -158 -194 -76 -285 68 -75 171 -88 250 -30 115
83 92 250 -42 312 -47 22 -76 23 -132 3z"/>
<path d="M5915 6188 c-77 -27 -134 -102 -135 -177 0 -75 59 -148 141 -171 73
-22 177 29 213 104 44 93 -17 217 -122 246 -44 12 -58 12 -97 -2z"/>
<path d="M3190 5461 c0 -12 5 -21 10 -21 6 0 10 6 10 14 0 8 -4 18 -10 21 -5
3 -10 -3 -10 -14z"/>
<path d="M7070 5473 c0 -5 5 -14 11 -20 13 -13 39 -6 39 9 0 5 -5 6 -10 3 -6
-4 -17 -1 -25 5 -8 7 -15 8 -15 3z"/>
<path d="M3212 5400 c0 -14 2 -19 5 -12 2 6 2 18 0 25 -3 6 -5 1 -5 -13z"/>
<path d="M7040 5390 c0 -5 4 -10 9 -10 6 0 13 5 16 10 3 6 -1 10 -9 10 -9 0
-16 -4 -16 -10z"/>
<path d="M3280 5309 c0 -5 5 -7 10 -4 6 3 10 8 10 11 0 2 -4 4 -10 4 -5 0 -10
-5 -10 -11z"/>
<path d="M3315 5290 c-3 -5 -1 -10 4 -10 6 0 11 5 11 10 0 6 -2 10 -4 10 -3 0
-8 -4 -11 -10z"/>
<path d="M3403 5233 c9 -2 23 -2 30 0 6 3 -1 5 -18 5 -16 0 -22 -2 -12 -5z"/>
<path d="M6910 5200 c8 -5 20 -10 25 -10 6 0 3 5 -5 10 -8 5 -19 10 -25 10 -5
0 -3 -5 5 -10z"/>
<path d="M3390 5185 c0 -8 5 -15 10 -15 6 0 10 7 10 15 0 8 -4 15 -10 15 -5 0
-10 -7 -10 -15z"/>
<path d="M6850 5190 c0 -5 5 -10 10 -10 6 0 10 5 10 10 0 6 -4 10 -10 10 -5 0
-10 -4 -10 -10z"/>
<path d="M3470 5170 c0 -5 5 -10 11 -10 5 0 7 5 4 10 -3 6 -8 10 -11 10 -2 0
-4 -4 -4 -10z"/>
<path d="M3450 5125 c-8 -9 -8 -15 -2 -15 12 0 26 19 19 26 -2 2 -10 -2 -17
-11z"/>
<path d="M6740 5100 c0 -5 7 -10 15 -10 8 0 15 5 15 10 0 6 -7 10 -15 10 -8 0
-15 -4 -15 -10z"/>
<path d="M3630 5069 c0 -5 5 -7 10 -4 6 3 10 8 10 11 0 2 -4 4 -10 4 -5 0 -10
-5 -10 -11z"/>
<path d="M6675 5060 c-3 -5 -1 -10 4 -10 6 0 11 5 11 10 0 6 -2 10 -4 10 -3 0
-8 -4 -11 -10z"/>
<path d="M6016 5004 c-4 -9 -4 -19 -1 -22 3 -3 5 0 5 7 0 7 4 9 10 6 6 -3 7 1
4 9 -8 20 -10 20 -18 0z"/>
<path d="M3725 4990 c-3 -5 -1 -10 4 -10 6 0 11 5 11 10 0 6 -2 10 -4 10 -3 0
-8 -4 -11 -10z"/>
<path d="M5745 4990 c-3 -5 -1 -10 4 -10 6 0 11 5 11 10 0 6 -2 10 -4 10 -3 0
-8 -4 -11 -10z"/>
<path d="M3967 4975 c-4 -8 -3 -16 1 -19 4 -3 9 4 9 15 2 23 -3 25 -10 4z"/>
<path d="M5340 4980 c0 -5 5 -10 10 -10 6 0 10 5 10 10 0 6 -4 10 -10 10 -5 0
-10 -4 -10 -10z"/>
<path d="M5810 4980 c0 -5 5 -10 10 -10 6 0 10 5 10 10 0 6 -4 10 -10 10 -5 0
-10 -4 -10 -10z"/>
<path d="M3680 4970 c0 -5 5 -10 11 -10 5 0 7 5 4 10 -3 6 -8 10 -11 10 -2 0
-4 -4 -4 -10z"/>
<path d="M4588 4963 c7 -3 16 -2 19 1 4 3 -2 6 -13 5 -11 0 -14 -3 -6 -6z"/>
<path d="M5024 4962 c-6 -4 -8 -16 -4 -27 6 -17 7 -16 12 8 3 15 5 27 4 27 0
0 -6 -4 -12 -8z"/>
<path d="M5093 4963 c9 -2 25 -2 35 0 9 3 1 5 -18 5 -19 0 -27 -2 -17 -5z"/>
<path d="M5575 4960 c3 -5 14 -10 23 -10 15 0 15 2 2 10 -20 13 -33 13 -25 0z"/>
<path d="M5625 4960 c3 -5 11 -10 16 -10 6 0 7 5 4 10 -3 6 -11 10 -16 10 -6
0 -7 -4 -4 -10z"/>
<path d="M6415 4960 c-3 -6 1 -7 9 -4 18 7 21 14 7 14 -6 0 -13 -4 -16 -10z"/>
<path d="M6470 4960 c0 -5 5 -10 11 -10 5 0 7 5 4 10 -3 6 -8 10 -11 10 -2 0
-4 -4 -4 -10z"/>
<path d="M3845 4951 c-3 -5 -1 -12 5 -16 5 -3 10 1 10 9 0 18 -6 21 -15 7z"/>
<path d="M3935 4950 c-3 -5 -1 -10 4 -10 6 0 11 5 11 10 0 6 -2 10 -4 10 -3 0
-8 -4 -11 -10z"/>
<path d="M4845 4950 c-3 -5 -1 -10 4 -10 6 0 11 5 11 10 0 6 -2 10 -4 10 -3 0
-8 -4 -11 -10z"/>
<path d="M5180 4950 c-23 -7 -23 -8 -3 -9 12 -1 25 4 28 9 3 6 5 10 3 9 -2 -1
-14 -5 -28 -9z"/>
<path d="M5693 4953 c-21 -8 -15 -22 7 -16 11 3 20 9 20 14 0 10 -8 10 -27 2z"/>
<path d="M6396 4937 c3 -10 9 -15 12 -12 3 3 0 11 -7 18 -10 9 -11 8 -5 -6z"/>
<path d="M2821 2774 c-163 -44 -303 -178 -353 -339 -131 -423 310 -802 710
-610 117 56 172 117 172 192 0 53 -32 101 -83 123 -52 23 -73 19 -151 -32
-118 -76 -213 -76 -297 -1 -72 65 -100 147 -79 233 17 70 58 122 121 154 83
41 152 33 249 -29 64 -41 117 -46 167 -15 87 52 88 162 2 234 -44 37 -118 73
-186 91 -71 19 -201 18 -272 -1z"/>
<path d="M3840 2771 c-99 -27 -165 -66 -239 -139 -107 -108 -159 -241 -148
-383 16 -206 151 -383 342 -449 165 -57 352 -24 491 88 68 53 143 167 166 251
34 125 19 276 -40 385 -44 81 -138 170 -223 211 -122 57 -230 69 -349 36z
m230 -290 c127 -76 146 -253 41 -362 -68 -70 -147 -86 -231 -48 -92 41 -134
107 -135 209 -1 185 173 293 325 201z"/>
<path d="M7221 2775 c-127 -36 -250 -135 -313 -251 -83 -153 -77 -371 14 -509
87 -133 208 -214 352 -237 290 -45 554 162 591 462 26 213 -118 440 -330 520
-78 29 -235 37 -314 15z m248 -292 c27 -17 58 -48 76 -77 26 -43 30 -59 30
-121 0 -62 -4 -78 -30 -121 -59 -95 -176 -137 -268 -96 -87 38 -136 116 -137
213 0 103 39 171 123 214 67 34 138 30 206 -12z"/>
<path d="M4683 2760 c-63 -38 -68 -59 -71 -325 -5 -341 13 -419 123 -534 129
-136 333 -169 484 -78 l54 32 36 -37 c47 -47 95 -57 157 -33 30 11 53 29 69
54 l23 36 4 400 c3 397 3 400 -19 435 -57 92 -191 94 -250 3 -16 -24 -19 -58
-23 -278 -5 -268 -8 -283 -62 -331 -57 -53 -148 -70 -207 -39 -39 20 -78 69
-91 113 -5 20 -10 138 -10 262 0 194 -2 230 -18 260 -37 74 -131 102 -199 60z"/>
<path d="M5813 2760 c-70 -42 -68 -23 -71 -645 -3 -619 -3 -617 59 -670 57
-48 161 -27 206 42 15 23 19 54 21 190 2 90 5 163 7 163 2 0 19 -9 37 -20 57
-33 154 -53 224 -45 133 14 290 120 358 241 67 119 88 264 57 394 -52 219
-254 380 -461 368 -79 -5 -157 -32 -196 -69 l-22 -21 -14 28 c-29 59 -140 84
-205 44z m521 -280 c49 -33 85 -90 99 -155 9 -46 8 -63 -7 -110 -61 -196 -286
-223 -378 -46 -63 121 -22 260 97 325 45 25 142 17 189 -14z"/>
</g>
</svg>
